<?xml version="1.0" encoding="UTF-8"?>
<svg width="145px" height="26px" viewBox="0 0 145 26" version="1.1" xmlns="http://www.w3.org/2000/svg"><title>Logo</title><desc>Created with Sketch.</desc><defs/><g id="Page-1" stroke="none" stroke-width="1" fill="none" fill-rule="evenodd"><g id="sigin_web_0.3" transform="translate(-440.000000, -184.000000)"><g id="Logo" transform="translate(425.000000, 169.000000)"><g id="Artboard-4"><rect id="Rectangle-path" x="0.128361858" y="0" width="174.657702" height="55.7264122"/><rect id="Rectangle-path" x="0.128361858" y="0" width="174.657702" height="55.7264122"/><path d="M36.7713936,35.0833588 C35.8852399,35.0833588 35.1668704,34.3656473 35.1668704,33.4803053 C35.1668704,32.5949634 35.8852399,31.8772519 36.7713936,31.8772519 C37.6575474,31.8772519 38.3759169,32.5949634 38.3759169,33.4803053 C38.3770572,33.9058098 38.2083759,34.3142149 37.9072218,34.6150931 C37.6060678,34.9159712 37.1972882,35.084498 36.7713936,35.0833588 M33.0103912,35.0833588 C32.1242375,35.0833588 31.405868,34.3656473 31.405868,33.4803053 C31.405868,32.5949634 32.1242375,31.8772519 33.0103912,31.8772519 C33.8965449,31.8772519 34.6149144,32.5949634 34.6149144,33.4803053 C34.6160547,33.9058098 34.4473734,34.3142149 34.1462194,34.6150931 C33.8450654,34.9159712 33.4362858,35.084498 33.0103912,35.0833588 M29.2493888,35.0833588 C28.363235,35.0833588 27.6448655,34.3656473 27.6448655,33.4803053 C27.6448655,32.5949634 28.363235,31.8772519 29.2493888,31.8772519 C30.1355425,31.8772519 30.853912,32.5949634 30.853912,33.4803053 C30.8550523,33.9058098 30.686371,34.3142149 30.385217,34.6150931 C30.0840629,34.9159712 29.6752833,35.084498 29.2493888,35.0833588 M29.5232274,15.3593893 L29.5232274,28.6112977 C29.5161991,29.1847067 29.0489166,29.6458445 28.4749389,29.6458015 L26.8832518,29.6458015 C26.8450505,29.645784 26.8084723,29.6612319 26.781866,29.6886193 C26.7552597,29.7160068 26.7408962,29.7529962 26.7420538,29.791145 L26.7420538,40.858626 C27.1314181,40.8970992 27.5250611,40.9141985 27.9272616,40.9141985 C34.7233841,40.9379623 40.3602314,35.6652422 40.7834581,28.8884824 C41.2066847,22.1117225 36.2695946,16.1798412 29.5232274,15.3593893" id="Shape" fill="#00B956" fill-rule="nonzero"/><path d="M25.4669927,25.8412214 C24.580839,25.8412214 23.8624694,25.1235099 23.8624694,24.2381679 C23.8624694,23.352826 24.580839,22.6351145 25.4669927,22.6351145 C26.3531464,22.6351145 27.0715159,23.352826 27.0715159,24.2381679 C27.0715159,24.6633241 26.9024684,25.0710671 26.6015619,25.3716979 C26.3006554,25.6723287 25.8925387,25.8412214 25.4669927,25.8412214 Z M27.9272616,15.2653435 C21.3871873,15.2887073 15.9103714,20.2209953 15.2106506,26.7176158 C14.5109299,33.2142364 18.8120576,39.1977327 25.1974328,40.610687 L25.1974328,29.1157252 C25.2082904,28.5618875 25.6489398,28.1122747 26.202934,28.089771 L27.8117359,28.089771 C27.8880766,28.089806 27.9506206,28.0292128 27.952934,27.9529771 L27.952934,15.2653435 L27.9272616,15.2653435 Z" id="Shape" fill="#00B956" fill-rule="nonzero"/><polygon id="Shape" fill="#00B956" fill-rule="nonzero" points="156.310513 22.3145038 156.310513 27.1535878 149.806846 27.1535878 149.806846 22.3145038 146.602078 22.3145038 146.602078 35.0961832 149.806846 35.0961832 149.806846 29.9322137 156.310513 29.9322137 156.310513 35.0961832 159.51956 35.0961832 159.51956 22.3145038"/><path d="M98.0599022,29.8381679 L100.032396,25.221374 C100.070934,25.1105172 100.175942,25.0365623 100.293399,25.0375573 C100.409283,25.0383843 100.5121,25.1120019 100.550122,25.221374 L102.526895,29.859542 L98.0599022,29.8381679 Z M102.924817,23.7422901 C102.46219,22.7035257 101.431393,22.0337031 100.293399,22.0323664 C99.1554036,22.0337031 98.124607,22.7035257 97.6619804,23.7422901 L92.4205379,35.0961832 L95.8435208,35.0961832 L96.9859413,32.3945038 L103.630807,32.3945038 L104.773227,35.0961832 L108.19621,35.0961832 L102.924817,23.7422901 Z" id="Shape" fill="#00B956" fill-rule="nonzero"/><path d="M64.7799511,20.0018321 C63.2781174,20.0018321 62.3239609,20.8012214 61.6136919,22.4085496 L57.4333741,32.0268702 L53.2487775,22.4085496 C52.5385086,20.8012214 51.5843521,20.0018321 50.0782396,20.0018321 C48.6748166,20.0018321 47.2243276,21.0064122 47.2243276,23.1865649 L47.2243276,35.0961832 L50.4290954,35.0961832 L50.4290954,23.5114504 L54.6350856,33.0442748 C55.195599,34.3780153 56.1069682,35.2158779 57.4290954,35.2158779 C58.7512225,35.2158779 59.658313,34.360916 60.2273839,33.0442748 L64.4333741,23.5114504 L64.4333741,35.0961832 L67.6381418,35.0961832 L67.6381418,23.1865649 C67.6381418,21.0064122 66.1833741,20.0018321 64.7799511,20.0018321" id="Shape" fill="#00B956" fill-rule="nonzero"/><path d="M73.2518337,32.3945038 C73.1780724,32.3945038 73.1073322,32.3652291 73.0551751,32.3131197 C73.0030179,32.2610104 72.9737164,32.190335 72.9737164,32.1166412 L72.9737164,29.8381679 L80.9663814,29.8381679 L80.9663814,27.2348092 L72.9737164,27.2348092 L72.9737164,25.289771 C72.976054,25.1379837 73.0998893,25.0161652 73.2518337,25.0161832 L81.1546455,25.0161832 L81.1546455,22.3145038 L71.6729829,22.3145038 C70.6226692,22.3215205 69.7736142,23.171704 69.7689487,24.2210687 L69.7689487,33.1981679 C69.7736142,34.2475326 70.6226692,35.0977161 71.6729829,35.1047328 L81.1546455,35.1047328 L81.1546455,32.3945038 L73.2518337,32.3945038 Z" id="Shape" fill="#00B956" fill-rule="nonzero"/><path d="M86.5929095,35.0961832 L86.5929095,25.289771 C86.5952471,25.1379837 86.7190825,25.0161652 86.8710269,25.0161832 L94.7738386,25.0161832 L94.7738386,22.3145038 L85.292176,22.3145038 C84.2411567,22.3214967 83.3908623,23.1710122 83.3838631,24.2210687 L83.3838631,35.0961832 L86.5929095,35.0961832 Z" id="Shape" fill="#00B956" fill-rule="nonzero"/><path d="M137.650978,32.5740458 L136.624083,32.5740458 C133.949878,32.5740458 132.918704,31.3728244 132.918704,28.6967939 C132.918704,26.0977099 133.825795,24.819542 136.624083,24.819542 L137.650978,24.819542 C140.367971,24.819542 141.356357,26.1019847 141.356357,28.6925191 C141.356357,31.3685496 140.30379,32.569771 137.650978,32.569771 L137.650978,32.5740458 Z M144.496944,28.6796947 C144.496944,24.2039695 142.571516,22.1178626 137.715159,22.1178626 L136.577017,22.1178626 C131.72066,22.1178626 129.799511,24.2039695 129.795232,28.6796947 C129.795232,33.0870229 131.759169,35.2116031 136.606968,35.2116031 L137.668093,35.2116031 C142.511614,35.2116031 144.479829,33.0741985 144.479829,28.6796947 L144.496944,28.6796947 Z" id="Shape" fill="#00B956" fill-rule="nonzero"/><path d="M124.177262,28.6839695 C123.698044,29.9664122 122.919315,30.7572519 120.754279,30.7572519 L119.286675,30.7572519 L119.286675,22.9984733 L121.25489,22.9984733 C123.103301,22.9984733 124.365526,24.1526718 124.365526,26.8757252 C124.407082,27.4845327 124.344869,28.0959704 124.18154,28.6839695 L124.177262,28.6839695 Z M116.081907,30.778626 L114.610024,30.778626 C112.440709,30.778626 111.66198,29.970687 111.187042,28.7053435 C111.023713,28.1173445 110.9615,27.5059068 111.003056,26.8970992 C111.003056,24.1740458 112.265281,23.0198473 114.113692,23.0198473 L116.086186,23.0198473 L116.081907,30.778626 Z M120.852689,20.3224427 L114.507335,20.3224427 C109.770782,20.3224427 107.875306,22.7163359 107.875306,26.8928244 C107.868984,27.4996316 107.913352,28.1059078 108.007946,28.7053435 C108.508557,31.6335878 110.25,33.4546565 114.669927,33.4546565 L116.064792,33.4546565 L116.064792,35.0961832 L119.265281,35.0961832 L119.265281,33.4546565 L120.660147,33.4546565 C125.097188,33.4546565 126.838631,31.6378626 127.339242,28.6839695 C127.433836,28.0845338 127.478204,27.4782576 127.471883,26.8714504 C127.471883,22.6949618 125.576406,20.3010687 120.839853,20.3010687 L120.852689,20.3224427 Z" id="Shape" fill="#00B956" fill-rule="nonzero"/></g></g></g></g></svg>